<svg xmlns="http://www.w3.org/2000/svg" viewBox="4808 4776.299 44.774 43.701">
  <defs>
    <style>
      .cls-1 {
        fill: #007ea6;
      }
    </style>
  </defs>
  <g id="Group_40" data-name="Group 40" transform="translate(4033 2370)">
    <path id="Path_125" data-name="Path 125" class="cls-1" d="M44.106,40.2A20.1,20.1,0,1,1,64.213,20.094,20.108,20.108,0,0,1,44.106,40.2Zm0-38.861A18.755,18.755,0,1,0,62.861,20.094,18.774,18.774,0,0,0,44.106,1.34Zm0,0" transform="translate(753.884 2406.299)"/>
    <path id="Path_126" data-name="Path 126" class="cls-1" d="M60.9,11.752A4.152,4.152,0,1,1,56.751,7.6,4.151,4.151,0,0,1,60.9,11.752Zm0,0" transform="translate(728.736 2399.617)"/>
    <path id="Path_127" data-name="Path 127" class="cls-1" d="M164.5,297.451a4.152,4.152,0,1,1-4.152-4.152,4.151,4.151,0,0,1,4.152,4.152Zm0,0" transform="translate(637.639 2148.397)"/>
    <path id="Path_128" data-name="Path 128" class="cls-1" d="M310.6,196.352a4.152,4.152,0,1,1-4.152-4.152,4.151,4.151,0,0,1,4.152,4.152Zm0,0" transform="translate(509.172 2237.295)"/>
    <path id="Path_129" data-name="Path 129" class="cls-1" d="M268.4,11.752A4.152,4.152,0,1,1,264.252,7.6a4.151,4.151,0,0,1,4.152,4.152Zm0,0" transform="translate(546.279 2399.617)"/>
    <path id="Path_130" data-name="Path 130" class="cls-1" d="M8.4,196.352A4.152,4.152,0,1,1,4.252,192.2,4.151,4.151,0,0,1,8.4,196.352Zm0,0" transform="translate(774.9 2237.295)"/>
    <path id="Path_131" data-name="Path 131" class="cls-1" d="M139.745,87.145v-4.26a4.152,4.152,0,1,1,8.3,0v4.224h2.221V82.884a6.384,6.384,0,1,0-12.769,0v4.224h2.221v.036Zm0,0" transform="translate(654.082 2339.032)"/>
    <rect id="Rectangle_38" data-name="Rectangle 38" class="cls-1" width="16.727" height="11.333" transform="translate(789.639 2425.947)"/>
  </g>
</svg>
