<svg xmlns="http://www.w3.org/2000/svg" viewBox="2494 3706 45.606 47.692">
  <defs>
    <style>
      .cls-1 {
        fill: #007ea6;
      }
    </style>
  </defs>
  <g id="Group_6" data-name="Group 6" transform="translate(2494 3706)">
    <path id="Path_6" data-name="Path 6" class="cls-1" d="M34.093,113.751a3.353,3.353,0,0,0-.605-3.884,3.227,3.227,0,0,0-1.053-.708l.1-.1a3.328,3.328,0,0,0,0-4.713,3.355,3.355,0,0,0-1.053-.717l4.434-4.434A3.333,3.333,0,0,0,31.2,94.478L14.95,110.714a10.21,10.21,0,0,0-2.99,8.328L.307,130.7a1.041,1.041,0,0,0,1.472,1.472L13.8,120.15a1.027,1.027,0,0,0,.289-.894,8.131,8.131,0,0,1,2.338-7.07L32.667,95.95a1.251,1.251,0,0,1,1.77,1.77l-9.948,9.939a1.041,1.041,0,1,0,1.472,1.472l3.325-3.325h0a1.251,1.251,0,0,1,1.77,1.77l-2.273,2.273-.019.019-.009.009-1.593,1.593a1.041,1.041,0,1,0,1.472,1.472l1.611-1.611a1.232,1.232,0,0,1,.876-.354,1.251,1.251,0,0,1,.885,2.133L30.6,114.514l-.009.009-.009.009-.755.755a1.041,1.041,0,0,0,1.472,1.472l.764-.764a1.248,1.248,0,0,1,1.761,1.77l-5.915,5.915a8.158,8.158,0,0,1-7.07,2.338,1.027,1.027,0,0,0-.894.289l-4.387,4.4a1.041,1.041,0,1,0,1.472,1.472l4.033-4.033a10.18,10.18,0,0,0,8.328-2.99l5.915-5.915a3.328,3.328,0,0,0,0-4.713A3.1,3.1,0,0,0,34.093,113.751Z" transform="translate(0 -84.791)"/>
    <path id="Path_7" data-name="Path 7" class="cls-1" d="M251.379,3.521a12.045,12.045,0,0,0-20.344,10.824,1.043,1.043,0,1,0,2.049-.391,9.968,9.968,0,1,1,12.1,7.8,1.044,1.044,0,0,0,.242,2.059,1.074,1.074,0,0,0,.242-.028,12.057,12.057,0,0,0,5.71-20.26Z" transform="translate(-209.313 0)"/>
    <path id="Path_8" data-name="Path 8" class="cls-1" d="M311.045,64.124a1.035,1.035,0,0,0,1.472,0,7.219,7.219,0,1,0-10.209-10.209,1.041,1.041,0,1,0,1.472,1.472,5.134,5.134,0,0,1,7.266,7.256A1.063,1.063,0,0,0,311.045,64.124Z" transform="translate(-273.869 -46.975)"/>
  </g>
</svg>
