<svg xmlns="http://www.w3.org/2000/svg" viewBox="4485 3689 47 39.17">
  <defs>
    <style>
      .cls-1 {
        fill: #007ea6;
      }
    </style>
  </defs>
  <g id="Group_31" data-name="Group 31" transform="translate(3665 1408)">
    <path id="Path_79" data-name="Path 79" class="cls-1" d="M43.842,123.3H25.272a.983.983,0,0,0-.982.982v5.875H21.113v-5.875a.983.983,0,0,0-.982-.982,13.885,13.885,0,0,0-12.87,8.6,5.42,5.42,0,0,0-1.717-.275,5.545,5.545,0,0,0,0,11.089,5.779,5.779,0,0,0,1.68-.257,13.925,13.925,0,0,0,26.814-4.581l10.024-2.295c1.808-.413,2.938-1.616,2.938-3.13v-5.994A3.158,3.158,0,0,0,43.842,123.3Zm1.2,9.152c0,.808-.991,1.12-1.414,1.221l-10.768,2.469a.98.98,0,0,0-.762.955v.129A11.966,11.966,0,0,1,8.73,140.842a.97.97,0,0,0-.936-.679,1.042,1.042,0,0,0-.487.129,3.577,3.577,0,1,1,.028-6.215.98.98,0,0,0,1.423-.551,11.954,11.954,0,0,1,10.4-8.225v5.838a.983.983,0,0,0,.982.982h5.141a.983.983,0,0,0,.982-.982v-5.875h17.6a1.191,1.191,0,0,1,1.193,1.193v5.994Z" transform="translate(820 2169.019)"/>
    <path id="Path_80" data-name="Path 80" class="cls-1" d="M209.213,362.694H209.2a.983.983,0,1,0-.055,1.964h.064a.982.982,0,1,0,0-1.964Z" transform="translate(630.918 1951.6)"/>
    <path id="Path_81" data-name="Path 81" class="cls-1" d="M117.855,249.823a8.042,8.042,0,0,1-5.324-9.749.98.98,0,1,0-1.891-.514,9.874,9.874,0,0,0-.34,2.589,9.976,9.976,0,0,0,6.958,9.529,1.154,1.154,0,0,0,.3.046.971.971,0,0,0,.294-1.9Z" transform="translate(719.825 2064.086)"/>
    <path id="Path_82" data-name="Path 82" class="cls-1" d="M50.682,263.7a.982.982,0,1,0,.973.982A.983.983,0,0,0,50.682,263.7Z" transform="translate(774.862 2041.507)"/>
    <path id="Path_83" data-name="Path 83" class="cls-1" d="M237.582,7.491a.983.983,0,0,0,.982-.982V.982a.982.982,0,1,0-1.964,0V6.508A.983.983,0,0,0,237.582,7.491Z" transform="translate(605.119 2281)"/>
    <path id="Path_84" data-name="Path 84" class="cls-1" d="M147.323,41.7a.966.966,0,0,0,.688.285.951.951,0,0,0,.688-.285.975.975,0,0,0,0-1.386l-3.975-3.975a.98.98,0,0,0-1.386,1.386Z" transform="translate(690.082 2248.259)"/>
    <path id="Path_85" data-name="Path 85" class="cls-1" d="M308.637,40.157a.951.951,0,0,0,.688-.285l2.047-2.047a.98.98,0,1,0-1.386-1.386l-2.047,2.047a.975.975,0,0,0,0,1.386A1.045,1.045,0,0,0,308.637,40.157Z" transform="translate(540.591 2248.168)"/>
    <path id="Path_86" data-name="Path 86" class="cls-1" d="M287.728,81.228a.986.986,0,0,0,.7-.285l.018-.018a.98.98,0,0,0-1.386-1.386l-.018.018a.975.975,0,0,0,0,1.386A1,1,0,0,0,287.728,81.228Z" transform="translate(559.573 2209.025)"/>
  </g>
</svg>
