<svg xmlns="http://www.w3.org/2000/svg" viewBox="2826.355 4776.078 34.634 47.744">
  <defs>
    <style>
      .cls-1 {
        fill: #007ea6;
      }
    </style>
  </defs>
  <g id="Group_34" data-name="Group 34" transform="translate(2051.355 2758.078)">
    <path id="Path_90" data-name="Path 90" class="cls-1" d="M34.272,38.706l-2.332-4.365V23.55a14.688,14.688,0,0,0-10.6-14.093V4.076a4.076,4.076,0,1,0-8.152,0V9.457A14.7,14.7,0,0,0,2.6,23.55V34.341L.276,38.706A2.692,2.692,0,0,0,2.655,42.67h9.233a5.391,5.391,0,0,0,10.763,0h9.233a2.7,2.7,0,0,0,2.388-3.964Zm-1.931,1.548a.532.532,0,0,1-.457.252H2.664a.532.532,0,0,1-.457-.252.514.514,0,0,1-.009-.522l2.192-4.113H26.923A1.091,1.091,0,0,0,28,34.649c0-.037.009-.075.009-.112a1.083,1.083,0,0,0-1.082-1.082H4.781V23.55a12.5,12.5,0,0,1,25,0V34.64a.934.934,0,0,0,.131.476l2.453,4.607A.554.554,0,0,1,32.342,40.254ZM17.279,45.58a3.219,3.219,0,0,1-3.2-2.9h6.4A3.226,3.226,0,0,1,17.279,45.58Zm-1.912-41.5a1.9,1.9,0,1,1,3.805,0V9a14.277,14.277,0,0,0-1.9-.121,16.03,16.03,0,0,0-1.9.121Z" transform="translate(775.045 2018)"/>
    <path id="Path_91" data-name="Path 91" class="cls-1" d="M91.944,149.1a9.657,9.657,0,0,0-9.644,9.644,1.082,1.082,0,1,0,2.164,0,7.491,7.491,0,0,1,7.48-7.48,1.082,1.082,0,0,0,0-2.164Z" transform="translate(700.38 1882.806)"/>
  </g>
</svg>
