<svg xmlns="http://www.w3.org/2000/svg" viewBox="5141.359 4890.979 26.582 48.041">
  <defs>
    <style>
      .cls-1 {
        fill: #007ea6;
      }
    </style>
  </defs>
  <g id="Group_41" data-name="Group 41" transform="translate(4322.359 2872.979)">
    <path id="Path_132" data-name="Path 132" class="cls-1" d="M22.435,5.114H20.446V3.1a3.1,3.1,0,0,0-3.1-3.1H9.233a3.1,3.1,0,0,0-3.1,3.1V5.114H4.147A4.147,4.147,0,0,0,0,9.252V43.894a4.149,4.149,0,0,0,4.147,4.147H22.435a4.149,4.149,0,0,0,4.147-4.147V9.252A4.159,4.159,0,0,0,22.435,5.114ZM8.173,3.1A1.049,1.049,0,0,1,9.223,2.045H17.34A1.049,1.049,0,0,1,18.391,3.1V5.114H8.173Zm16.355,40.8a2.1,2.1,0,0,1-2.1,2.1H4.147a2.1,2.1,0,0,1-2.1-2.1V9.252a2.1,2.1,0,0,1,2.1-2.1H22.435a2.1,2.1,0,0,1,2.1,2.1V43.894Z" transform="translate(819 2018)"/>
    <path id="Path_133" data-name="Path 133" class="cls-1" d="M218.923,277.5a1.025,1.025,0,0,0-1.023,1.023v15.867a1.023,1.023,0,1,0,2.045,0V278.523A1.025,1.025,0,0,0,218.923,277.5Z" transform="translate(621.546 1766.538)"/>
    <path id="Path_134" data-name="Path 134" class="cls-1" d="M99.037,120.7H95.368c-1.548,0-2.768,1.492-2.768,3.387v23.73c0,1.9,1.21,3.387,2.768,3.387h3.669c1.548,0,2.768-1.492,2.768-3.387v-23.73C101.8,122.183,100.585,120.7,99.037,120.7Zm.722,14.225H94.645v-5.067h5.114Zm-5.114,2.046h5.114v5.067H94.645Zm0-12.883c0-.816.432-1.342.722-1.342h3.669c.291,0,.722.525.722,1.342v3.725H94.645v-3.725Zm5.114,23.73c0,.816-.432,1.342-.722,1.342H95.368c-.291,0-.722-.525-.722-1.342v-3.725h5.114v3.725Z" transform="translate(735.089 1908.625)"/>
    <path id="Path_135" data-name="Path 135" class="cls-1" d="M218.923,222.7a1.025,1.025,0,0,0-1.023,1.023v.31a1.023,1.023,0,1,0,2.045,0v-.31A1.019,1.019,0,0,0,218.923,222.7Z" transform="translate(621.546 1816.196)"/>
  </g>
</svg>
