<svg xmlns="http://www.w3.org/2000/svg" viewBox="2826.679 4885.779 25.986 50">
  <defs>
    <style>
      .cls-1 {
        fill: #007ea6;
      }
    </style>
  </defs>
  <g id="Group_16" data-name="Group 16" transform="translate(1951 2456)">
    <path id="Path_16" data-name="Path 16" class="cls-1" d="M50,9.365v7.266a2.18,2.18,0,0,1-2.178,2.178H45.264v3.906a3.272,3.272,0,0,1-3.271,3.271H3.271A3.272,3.272,0,0,1,0,22.715V3.271A3.272,3.272,0,0,1,3.271,0H41.982a3.272,3.272,0,0,1,3.271,3.271V7.178h2.559A2.19,2.19,0,0,1,50,9.365Zm-2.178,7.266V9.365H45.264v7.266Zm-4.746,6.084V3.271a1.092,1.092,0,0,0-1.094-1.094H13.252V23.8h28.73A1.078,1.078,0,0,0,43.076,22.715Zm-32,1.094V2.178h-7.8A1.092,1.092,0,0,0,2.178,3.271V22.715a1.092,1.092,0,0,0,1.094,1.094Z" transform="translate(875.679 2479.78) rotate(-90)"/>
    <path id="Path_17" data-name="Path 17" class="cls-1" d="M226.143,91.732a1.083,1.083,0,0,1-.342,1.5l-6.436,4.072a1.047,1.047,0,0,1-.586.166,1.146,1.146,0,0,1-.527-.137,1.089,1.089,0,0,1-.566-.957V91.927l-4.756,3.018a1.091,1.091,0,0,1-1.162-1.846l6.436-4.072a1.107,1.107,0,0,1,1.113-.039,1.089,1.089,0,0,1,.566.957V94.4l4.756-3.018A1.1,1.1,0,0,1,226.143,91.732Z" transform="translate(795.5 2670.405) rotate(-90)"/>
  </g>
</svg>
