<svg xmlns="http://www.w3.org/2000/svg" viewBox="4489.578 3594 34.52 46.184">
  <defs>
    <style>
      .cls-1 {
        fill: #007ea6;
      }
    </style>
  </defs>
  <g id="Group_36" data-name="Group 36" transform="translate(4009 2442)">
    <path id="Path_102" data-name="Path 102" class="cls-1" d="M111.824,232.3a.928.928,0,0,0-.924.924v.811a.924.924,0,0,0,1.848,0v-.811A.914.914,0,0,0,111.824,232.3Z" transform="translate(382.177 945.88)"/>
    <path id="Path_103" data-name="Path 103" class="cls-1" d="M111.824,266.4a.928.928,0,0,0-.924.924V271.9a.924.924,0,0,0,1.848,0v-4.576A.921.921,0,0,0,111.824,266.4Z" transform="translate(382.177 915.623)"/>
    <path id="Path_104" data-name="Path 104" class="cls-1" d="M26.856,28.062v-7.2a.928.928,0,0,0-.924-.924H24.4v-8.96A11,11,0,0,0,13.434,0h-.068A11.052,11.052,0,0,0,2.457,11.09v8.858H.924A.928.928,0,0,0,0,20.872V41.62a.928.928,0,0,0,.924.924H18.133a9.112,9.112,0,1,0,8.723-14.482ZM4.294,11.09a9.224,9.224,0,0,1,9.084-9.253h.056a9.138,9.138,0,0,1,9.129,9.14v8.96H20.737V11.056A7.38,7.38,0,0,0,13.5,3.663,7.311,7.311,0,0,0,6.12,10.977v8.96H4.294ZM18.9,11.056v8.881H7.957v-8.96A5.483,5.483,0,0,1,13.423,5.5h.056A5.54,5.54,0,0,1,18.9,11.056ZM17.051,40.685H1.837V21.774H25.019v6.176a9.112,9.112,0,0,0-7.968,12.735Zm8.351,3.64a7.269,7.269,0,1,1,7.269-7.269A7.272,7.272,0,0,1,25.4,44.325Z" transform="translate(480.578 1152)"/>
    <path id="Path_105" data-name="Path 105" class="cls-1" d="M190.061,299.748l-4.643,4.643-1.251-1.251a.916.916,0,0,0-1.3,1.3l1.9,1.9a.925.925,0,0,0,1.307,0l5.286-5.286a.911.911,0,0,0,0-1.3A.936.936,0,0,0,190.061,299.748Z" transform="translate(318.557 886.265)"/>
  </g>
</svg>
