<svg xmlns="http://www.w3.org/2000/svg" viewBox="2493.706 4890.923 49.265 50">
  <defs>
    <style>
      .cls-1 {
        fill: #007ea6;
      }
    </style>
  </defs>
  <g id="Group_17" data-name="Group 17" transform="translate(1868 2630.999)">
    <path id="Path_18" data-name="Path 18" class="cls-1" d="M46.579,11.864l-9.2-9.2a9.19,9.19,0,0,0-12.99,0L15.881,11.17A9.177,9.177,0,0,0,15.725,24L.352,39.378a1.191,1.191,0,0,0-.352.84v8.566a1.2,1.2,0,0,0,1.192,1.192H8.253a1.191,1.191,0,0,0,.84-.352l2.383-2.373a1.191,1.191,0,0,0,.352-.84V43.49h2.92A1.19,1.19,0,0,0,15.94,42.3V41.126h1.172A1.19,1.19,0,0,0,18.3,39.935V37.366h2.569a1.174,1.174,0,0,0,.84-.352L25.228,33.5a9.188,9.188,0,0,0,12.844-.137l8.507-8.507a9.2,9.2,0,0,0,0-12.99ZM20.374,34.983H17.112a1.2,1.2,0,0,0-1.192,1.192v2.569H14.748a1.2,1.2,0,0,0-1.192,1.192v1.172h-2.92A1.2,1.2,0,0,0,9.445,42.3v3.624L7.765,47.6H2.393v-1.69L16.965,31.33a1.07,1.07,0,1,0-1.514-1.514L2.383,42.874V40.716L17.4,25.694l6.134,6.124ZM44.889,23.164l-8.507,8.507a6.809,6.809,0,0,1-9.611,0l-9.2-9.2a6.809,6.809,0,0,1,0-9.611l8.507-8.507a6.791,6.791,0,0,1,9.611,0l9.2,9.2A6.809,6.809,0,0,1,44.889,23.164Z" transform="translate(625.705 2259.95)"/>
    <path id="Path_19" data-name="Path 19" class="cls-1" d="M314.047,88.157a3.254,3.254,0,0,0-4.61,0l-.234.234a3.254,3.254,0,0,0,0,4.6l3.878,3.878h0a3.278,3.278,0,0,0,4.61,0l.234-.234a3.254,3.254,0,0,0,0-4.61Zm2.364,6.964-.234.234a1.108,1.108,0,0,1-1.563,0l-3.887-3.878a1.108,1.108,0,0,1,0-1.563l.234-.234a1.108,1.108,0,0,1,1.563,0l3.878,3.878a1.109,1.109,0,0,1,.322.781A1.06,1.06,0,0,1,316.41,95.121Z" transform="translate(347.562 2181.244)"/>
  </g>
</svg>
