<svg xmlns="http://www.w3.org/2000/svg" viewBox="4484.266 4776.587 42.734 43.413">
  <defs>
    <style>
      .cls-1 {
        fill: #007ea6;
      }
    </style>
  </defs>
  <g id="Group_42" data-name="Group 42" transform="translate(3776.266 2758.587)">
    <path id="Path_136" data-name="Path 136" class="cls-1" d="M28.066,0a14.669,14.669,0,1,1-5.206,28.388l-3.4,3.409a1.066,1.066,0,0,1-.755.314h-2.3v2.3a1.064,1.064,0,0,1-1.068,1.068H14.287v1.051A1.064,1.064,0,0,1,13.219,37.6H10.6v2.62a1.051,1.051,0,0,1-.314.755L8.157,43.1a1.066,1.066,0,0,1-.755.314H1.068A1.064,1.064,0,0,1,0,42.344V34.671a1.051,1.051,0,0,1,.314-.755L14.347,19.883A14.688,14.688,0,0,1,28.066,0ZM40.6,14.669A12.532,12.532,0,1,0,16.585,19.7a1.076,1.076,0,0,1-.212,1.179l-.008.008L2.137,35.112v1.933l11.71-11.71A.965.965,0,1,1,15.211,26.7L2.137,39.767v1.509H6.953l1.509-1.509V36.519A1.064,1.064,0,0,1,9.53,35.451h2.612V34.4a1.064,1.064,0,0,1,1.068-1.068h1.051v-2.3a1.064,1.064,0,0,1,1.068-1.068h2.925l3.587-3.6.008-.008a1.058,1.058,0,0,1,1.179-.212A12.542,12.542,0,0,0,40.6,14.669Z" transform="translate(708 2018)"/>
    <path id="Path_137" data-name="Path 137" class="cls-1" d="M340.5,73.1a4,4,0,1,1-4,4A4.01,4.01,0,0,1,340.5,73.1Zm1.865,4.011a1.865,1.865,0,1,0-1.865,1.865A1.871,1.871,0,0,0,342.367,77.111Z" transform="translate(400.032 1951.098)"/>
  </g>
</svg>
