<svg xmlns="http://www.w3.org/2000/svg" viewBox="2500 3498 34.066 47.916">
  <defs>
    <style>
      .cls-1 {
        fill: #007ea6;
      }
    </style>
  </defs>
  <g id="Group_4" data-name="Group 4" transform="translate(2500 3498)">
    <path id="Path_2" data-name="Path 2" class="cls-1" d="M33.234,0H.832A.837.837,0,0,0,0,.832V47.084a.837.837,0,0,0,.832.832h32.4a.837.837,0,0,0,.832-.832V.832A.837.837,0,0,0,33.234,0ZM9.77,13.876a6.716,6.716,0,0,0-2.313,5.067,5.553,5.553,0,0,0,5.548,5.548,4.613,4.613,0,0,0,4.612-4.612,3.854,3.854,0,0,0-3.846-3.846,3.249,3.249,0,0,0-3.248,3.248.832.832,0,1,0,1.663,0A1.591,1.591,0,0,1,13.772,17.7a2.187,2.187,0,0,1,2.183,2.183,2.955,2.955,0,0,1-2.949,2.949,3.887,3.887,0,0,1-3.885-3.885,5.074,5.074,0,0,1,5.067-5.067,6.554,6.554,0,0,1,6.548,6.548,8.392,8.392,0,0,1-8.38,8.38A10.7,10.7,0,0,1,1.663,18.111a13.391,13.391,0,0,1,.676-4.236H9.77ZM3.014,12.213A13.576,13.576,0,0,1,15.227,4.547a16.836,16.836,0,0,1,5.509.909v10A8.183,8.183,0,0,0,14.2,12.213ZM1.663,24.3A12.4,12.4,0,0,0,6.171,28.8H1.663ZM32.4,46.253H1.663v-15.8H30.558A21.7,21.7,0,0,1,10.732,43.368a.832.832,0,0,0,0,1.663A23.373,23.373,0,0,0,32.4,30.376Zm-1.2-17.462H17.877a10.065,10.065,0,0,0,4.521-8.38V6.106a17.191,17.191,0,0,1,10,15.6,21.32,21.32,0,0,1-1.2,7.081Zm1.2-14.824a18.865,18.865,0,0,0-17.176-11.1A15.225,15.225,0,0,0,1.663,11.186V1.663H32.4Zm0,0" transform="translate(0)"/>
  </g>
</svg>
