<svg xmlns="http://www.w3.org/2000/svg" viewBox="4485 3492 43.78 43.78">
  <defs>
    <style>
      .cls-1 {
        fill: #007ea6;
      }
    </style>
  </defs>
  <g id="Group_35" data-name="Group 35" transform="translate(3986 2497)">
    <path id="Path_92" data-name="Path 92" class="cls-1" d="M.889,13.6a.889.889,0,0,0,.889-.889V1.787H12.689A.889.889,0,0,0,13.579.9.873.873,0,0,0,12.7,0H.889A.894.894,0,0,0,0,.889V12.7A.9.9,0,0,0,.889,13.6Z" transform="translate(499 995)"/>
    <path id="Path_93" data-name="Path 93" class="cls-1" d="M365.8,353a.889.889,0,0,0-.889.889V364.8H353.989a.889.889,0,0,0,0,1.779H365.8a.889.889,0,0,0,.889-.889V353.9A.9.9,0,0,0,365.8,353Z" transform="translate(176.093 672.184)"/>
    <path id="Path_94" data-name="Path 94" class="cls-1" d="M401.006,0h-8.517a.889.889,0,0,0,0,1.779h7.619V12.689a.889.889,0,1,0,1.779,0V.889A.881.881,0,0,0,401.006,0Z" transform="translate(140.885 995)"/>
    <path id="Path_95" data-name="Path 95" class="cls-1" d="M353.9,1.877h.4A.889.889,0,1,0,354.3.1h-.4a.883.883,0,0,0-.9.881A.9.9,0,0,0,353.9,1.877Z" transform="translate(176.184 994.91)"/>
    <path id="Path_96" data-name="Path 96" class="cls-1" d="M9.406,364.9H1.787V353.988A.889.889,0,0,0,.9,353.1a.885.885,0,0,0-.9.889V365.8a.889.889,0,0,0,.889.889H9.406a.894.894,0,0,0,0-1.787Z" transform="translate(499 672.094)"/>
    <path id="Path_97" data-name="Path 97" class="cls-1" d="M134.691,491.1h-.4a.889.889,0,1,0,0,1.779h.4a.889.889,0,1,0,0-1.779Z" transform="translate(377.007 545.893)"/>
    <path id="Path_98" data-name="Path 98" class="cls-1" d="M144.9,76.1h0a9.5,9.5,0,0,0,9.5,9.509h0a9.5,9.5,0,0,0,0-19.009h0a9.512,9.512,0,0,0-9.5,9.5Zm14.955-5.455a7.638,7.638,0,0,1,2.2,4.5,7.732,7.732,0,0,1-6.7-6.7A7.7,7.7,0,0,1,159.855,70.645Zm-6.4-2.2a7.741,7.741,0,0,1-6.7,6.7A7.724,7.724,0,0,1,153.451,68.447Zm.949,3.07a9.521,9.521,0,0,0,7.67,5.438,7.724,7.724,0,0,1-7.67,6.866h0a7.714,7.714,0,0,1-7.67-6.866A9.526,9.526,0,0,0,154.4,71.517Z" transform="translate(366.49 934.095)"/>
    <path id="Path_99" data-name="Path 99" class="cls-1" d="M101.025,302h0a9.839,9.839,0,0,0-9.825,9.833v1.248a.889.889,0,0,0,.889.889h26.422a.889.889,0,0,0,.889-.889v-1.248A9.839,9.839,0,0,0,109.576,302Zm16.589,9.833v.351H92.987v-.351a8.052,8.052,0,0,1,8.046-8.038h8.551A8.043,8.043,0,0,1,117.614,311.833Z" transform="translate(415.598 718.823)"/>
    <path id="Path_100" data-name="Path 100" class="cls-1" d="M247.891,391.8h-.4a.889.889,0,1,0,0,1.779h.4a.889.889,0,0,0,0-1.779Z" transform="translate(273.486 636.702)"/>
    <path id="Path_101" data-name="Path 101" class="cls-1" d="M133.946,391.8h-7.456a.889.889,0,0,0,0,1.779h7.456a.889.889,0,0,0,0-1.779Z" transform="translate(384.14 636.702)"/>
  </g>
</svg>
