<svg xmlns="http://www.w3.org/2000/svg" viewBox="3122 4892 50 36.975">
  <defs>
    <style>
      .cls-1 {
        fill: #007ea6;
      }
    </style>
  </defs>
  <g id="Group_18" data-name="Group 18" transform="translate(2366 3135)">
    <path id="Path_20" data-name="Path 20" class="cls-1" d="M49,36.975a1.006,1.006,0,0,0,1-1A16.641,16.641,0,0,0,38.135,20.056a9.344,9.344,0,0,0-4.749-17.4,9.621,9.621,0,0,0-1.465.11,10.014,10.014,0,0,0-13.843.012,9.621,9.621,0,0,0-1.465-.11,9.344,9.344,0,0,0-4.749,17.4A16.626,16.626,0,0,0,0,35.974a1.006,1.006,0,0,0,1,1H49ZM40.735,12.012a7.356,7.356,0,0,1-7.349,7.349,7.463,7.463,0,0,1-3.21-.732,10.024,10.024,0,0,0,3.3-13.965,7.346,7.346,0,0,1,7.263,7.349ZM25,1.99a8.042,8.042,0,0,1,8.032,8.032,8.043,8.043,0,0,1-4.7,7.312,7.9,7.9,0,0,1-3.345.72,9.879,9.879,0,0,1-1.208-.085,8.029,8.029,0,0,1-3.43-14.514A8.214,8.214,0,0,1,25,1.99ZM9.265,12.012a7.362,7.362,0,0,1,7.263-7.349,10.024,10.024,0,0,0,3.3,13.965,7.252,7.252,0,0,1-3.21.732,7.356,7.356,0,0,1-7.349-7.349Zm5.2,9.5A17.906,17.906,0,0,0,7.129,34.985h-5.1A14.659,14.659,0,0,1,14.465,21.509ZM9.119,34.985a15.961,15.961,0,0,1,9.351-13.513,16.61,16.61,0,0,1,3.711-1.16,15.795,15.795,0,0,1,9.351,1.16,15.961,15.961,0,0,1,9.351,13.513Zm33.752,0a17.882,17.882,0,0,0-7.336-13.464A14.657,14.657,0,0,1,47.974,34.985Zm0,0" transform="translate(756 1757)"/>
    <path id="Path_21" data-name="Path 21" class="cls-1" d="M98.391,191.675a14.238,14.238,0,0,0-6.506,8.826.979.979,0,0,0,.732,1.2.751.751,0,0,0,.232.024.989.989,0,0,0,.964-.769,12.22,12.22,0,0,1,5.591-7.581.988.988,0,1,0-1.013-1.7Zm0,0" transform="translate(675.358 1588.848)"/>
    <path id="Path_22" data-name="Path 22" class="cls-1" d="M175.847,176.412a.806.806,0,0,0-.171-.012h-.159a14.011,14.011,0,0,0-3.113.378.953.953,0,0,0-.415.208.963.963,0,0,0-.317.989.989.989,0,0,0,.964.769,1.5,1.5,0,0,0,.232-.024,11.407,11.407,0,0,1,2.136-.305c.232-.012.452-.024.684-.024a1.006,1.006,0,0,0,1-1,1.031,1.031,0,0,0-.842-.977Zm0,0" transform="translate(605.312 1602.133)"/>
  </g>
</svg>
