<?xml version="1.0" encoding="utf-8"?>
<!-- Generator: Adobe Illustrator 21.0.0, SVG Export Plug-In . SVG Version: 6.00 Build 0)  -->
<svg version="1.1" id="Camada_1" xmlns="http://www.w3.org/2000/svg" xmlns:xlink="http://www.w3.org/1999/xlink" x="0px" y="0px"
	 viewBox="0 0 51 38.9" style="enable-background:new 0 0 51 38.9;" xml:space="preserve">
<style type="text/css">
	.st0{fill:#B1DCE1;}
	.st1{fill:#485059;}
</style>
<g>
	<g>
		<ellipse class="st0" cx="19.6" cy="19.5" rx="19.6" ry="19.5"/>
	</g>
</g>
<g>
	<g>
		<path class="st1" d="M31.5,7.8c-6.5,0-11.7,5.2-11.7,11.7c0,6.5,5.3,11.7,11.7,11.7c6.5,0,11.7-5.2,11.7-11.7
			C43.2,13,38,7.8,31.5,7.8z M31.5,29.5c-5.5,0-10-4.5-10-10c0-5.5,4.5-10,10-10c5.5,0,10,4.5,10,10C41.6,25,37.1,29.5,31.5,29.5z
			 M50.3,16.5l-3-0.6c-0.1-0.4-0.2-0.8-0.3-1.2l2.3-2c0.3-0.3,0.4-0.7,0.2-1.1l-2.2-3.8c-0.2-0.4-0.6-0.5-1-0.4l-2.8,1
			c-0.3-0.3-0.6-0.6-0.9-0.9l1-2.8c0.1-0.4,0-0.8-0.4-1l-3.8-2.2c-0.4-0.2-0.8-0.1-1.1,0.2l-2,2.3c-0.4-0.1-0.8-0.2-1.2-0.3l-0.6-3
			C34.5,0.3,34.1,0,33.7,0h-4.4c-0.4,0-0.8,0.3-0.8,0.7l-0.6,3c-0.4,0.1-0.8,0.2-1.2,0.3l-2-2.3c-0.3-0.3-0.7-0.4-1.1-0.2l-3.8,2.2
			c-0.4,0.2-0.5,0.6-0.4,1l1,2.8c-0.3,0.3-0.6,0.6-0.9,0.9l-2.8-1c-0.4-0.1-0.8,0-1,0.4l-2.2,3.8c-0.2,0.4-0.1,0.8,0.2,1.1l2.3,2
			c-0.1,0.4-0.2,0.8-0.3,1.2l-3,0.6c-0.4,0.1-0.7,0.4-0.7,0.8l0,4.4c0,0.4,0.3,0.8,0.7,0.8l3,0.6c0.1,0.4,0.2,0.8,0.3,1.2l-2.3,2
			c-0.3,0.3-0.4,0.7-0.2,1.1l2.2,3.8c0.2,0.4,0.6,0.5,1,0.4l2.8-1c0.3,0.3,0.6,0.6,0.9,0.9l-1,2.8c-0.1,0.4,0,0.8,0.4,1l3.8,2.2
			c0.4,0.2,0.8,0.1,1.1-0.2l2-2.3c0.4,0.1,0.8,0.2,1.2,0.3l0.6,3c0.1,0.4,0.4,0.7,0.8,0.7h4.4c0.4,0,0.8-0.3,0.8-0.7l0.6-3
			c0.4-0.1,0.8-0.2,1.2-0.3l2,2.3c0.3,0.3,0.7,0.4,1.1,0.2l3.8-2.2c0.4-0.2,0.5-0.6,0.4-1l-1-2.8c0.3-0.3,0.6-0.6,0.9-0.9l2.8,1
			c0.4,0.1,0.8,0,1-0.4l2.2-3.8c0.2-0.4,0.1-0.8-0.2-1.1l-2.3-2c0.1-0.4,0.2-0.8,0.3-1.2l3-0.6c0.4-0.1,0.7-0.4,0.7-0.8v-4.4
			C51,16.9,50.7,16.5,50.3,16.5z M49.3,21l-2.8,0.5c-0.3,0.1-0.6,0.3-0.7,0.7c-0.1,0.7-0.3,1.4-0.6,2.1c-0.1,0.3,0,0.7,0.2,0.9
			l2.2,1.9l-1.5,2.6l-2.7-0.9c-0.3-0.1-0.7,0-0.9,0.2c-0.5,0.5-1,1.1-1.5,1.5c-0.3,0.2-0.4,0.6-0.2,0.9l0.9,2.7l-2.6,1.5l-1.9-2.2
			c-0.2-0.3-0.6-0.4-0.9-0.2c-0.7,0.2-1.4,0.4-2.1,0.6c-0.3,0.1-0.6,0.3-0.7,0.7L33,37.2h-3l-0.5-2.8c-0.1-0.3-0.3-0.6-0.7-0.7
			c-0.7-0.1-1.4-0.3-2.1-0.6c-0.1,0-0.2,0-0.3,0c-0.2,0-0.5,0.1-0.6,0.3l-1.9,2.2l-2.6-1.5l0.9-2.7c0.1-0.3,0-0.7-0.2-0.9
			c-0.5-0.5-1.1-1-1.5-1.5c-0.2-0.3-0.6-0.4-0.9-0.2l-2.7,0.9l-1.5-2.6l2.2-1.9c0.3-0.2,0.4-0.6,0.2-0.9c-0.2-0.7-0.4-1.4-0.6-2.1
			c-0.1-0.3-0.3-0.6-0.7-0.7L13.8,21l0-3l2.8-0.5c0.3-0.1,0.6-0.3,0.7-0.7c0.1-0.7,0.3-1.4,0.6-2.1c0.1-0.3,0-0.7-0.2-0.9l-2.2-1.9
			l1.5-2.6l2.7,0.9c0.3,0.1,0.7,0,0.9-0.2c0.5-0.5,1-1.1,1.5-1.5c0.3-0.2,0.4-0.6,0.2-0.9l-0.9-2.7l2.6-1.5l1.9,2.2
			c0.2,0.3,0.6,0.4,0.9,0.2c0.7-0.2,1.4-0.4,2.1-0.6c0.3-0.1,0.6-0.3,0.7-0.7l0.5-2.8h3l0.5,2.8c0.1,0.3,0.3,0.6,0.7,0.7
			c0.7,0.1,1.4,0.3,2.1,0.6c0.3,0.1,0.7,0,0.9-0.2l1.9-2.2l2.6,1.5l-0.9,2.7c-0.1,0.3,0,0.7,0.2,0.9c0.5,0.5,1.1,1,1.5,1.5
			c0.2,0.3,0.6,0.4,0.9,0.2l2.7-0.9l1.5,2.6l-2.2,1.9c-0.3,0.2-0.4,0.6-0.2,0.9c0.2,0.7,0.4,1.4,0.6,2.1c0.1,0.3,0.3,0.6,0.7,0.7
			l2.8,0.5V21z"/>
	</g>
</g>
</svg>
