<?xml version="1.0" encoding="utf-8"?>
<!-- Generator: Adobe Illustrator 21.1.0, SVG Export Plug-In . SVG Version: 6.00 Build 0)  -->
<svg version="1.1" id="Camada_1" xmlns="http://www.w3.org/2000/svg" xmlns:xlink="http://www.w3.org/1999/xlink" x="0px" y="0px"
	 viewBox="0 0 113 80" style="enable-background:new 0 0 113 80;" xml:space="preserve">
<style type="text/css">
	.st0{fill:#57656C;}
</style>
<g>
	<g>
		<path class="st0" d="M56.5,21.4c-10.3,0-18.6,8.4-18.6,18.6c0,10.3,8.4,18.6,18.6,18.6c10.3,0,18.6-8.4,18.6-18.6
			C75.1,29.7,66.8,21.4,56.5,21.4z M56.5,55.9c-8.8,0-16-7.2-16-15.9c0-8.8,7.2-15.9,16-15.9c8.8,0,15.9,7.2,15.9,15.9
			C72.4,48.8,65.3,55.9,56.5,55.9z M86.4,35.2l-4.7-0.9c-0.1-0.7-0.3-1.3-0.5-2l3.6-3.1c0.5-0.4,0.6-1.1,0.3-1.7l-3.5-6
			c-0.3-0.6-1-0.8-1.6-0.6l-4.5,1.6C75,22,74.5,21.5,74,21l1.6-4.5c0.2-0.6,0-1.3-0.6-1.6l-6-3.5c-0.6-0.3-1.3-0.2-1.7,0.3l-3.1,3.6
			c-0.6-0.2-1.3-0.4-2-0.5l-0.9-4.7C61.2,9.5,60.6,9,60,9h-7c-0.6,0-1.2,0.5-1.3,1.1l-0.9,4.7c-0.7,0.1-1.3,0.3-2,0.5l-3.1-3.6
			c-0.4-0.5-1.1-0.6-1.7-0.3l-6,3.5c-0.6,0.3-0.8,1-0.6,1.6L39,21c-0.5,0.5-1,0.9-1.4,1.4L33,20.9c-0.6-0.2-1.3,0-1.6,0.6l-3.5,6
			c-0.3,0.6-0.2,1.3,0.3,1.7l3.6,3.1c-0.2,0.6-0.4,1.3-0.5,2l-4.7,0.9c-0.6,0.1-1.1,0.7-1.1,1.3l0,7c0,0.6,0.5,1.2,1.1,1.3l4.7,0.9
			c0.1,0.7,0.3,1.3,0.5,2l-3.6,3.1c-0.5,0.4-0.6,1.1-0.3,1.7l3.5,6c0.3,0.6,1,0.8,1.6,0.6l4.5-1.6c0.5,0.5,0.9,1,1.4,1.4l-1.6,4.5
			c-0.2,0.6,0,1.3,0.6,1.6l6,3.5c0.6,0.3,1.3,0.2,1.7-0.3l3.1-3.6c0.6,0.2,1.3,0.4,2,0.5l0.9,4.7c0.1,0.6,0.7,1.1,1.3,1.1h7
			c0.6,0,1.2-0.5,1.3-1.1l0.9-4.7c0.7-0.1,1.3-0.3,2-0.5l3.1,3.6c0.4,0.5,1.1,0.6,1.7,0.3l6-3.5c0.6-0.3,0.8-1,0.6-1.6L74,59
			c0.5-0.5,1-0.9,1.4-1.4l4.5,1.6c0.6,0.2,1.3,0,1.6-0.6l3.5-6c0.3-0.6,0.2-1.3-0.3-1.7l-3.6-3.1c0.2-0.6,0.4-1.3,0.5-2l4.7-0.9
			c0.6-0.1,1.1-0.7,1.1-1.3v-7C87.5,35.9,87,35.3,86.4,35.2z M84.8,42.4l-4.5,0.9c-0.5,0.1-1,0.5-1.1,1.1c-0.2,1.1-0.5,2.3-0.9,3.3
			c-0.2,0.5,0,1.1,0.4,1.5l3.5,3l-2.4,4.1l-4.3-1.5c-0.5-0.2-1.1,0-1.5,0.4c-0.8,0.9-1.6,1.7-2.4,2.4c-0.4,0.4-0.6,0.9-0.4,1.5
			l1.5,4.3l-4.1,2.4l-3-3.5c-0.4-0.4-0.9-0.6-1.5-0.4c-1.1,0.4-2.2,0.7-3.3,0.9c-0.5,0.1-1,0.5-1.1,1.1l-0.9,4.5h-4.7l-0.9-4.5
			c-0.1-0.5-0.5-1-1.1-1.1c-1.1-0.2-2.3-0.5-3.3-0.9c-0.1-0.1-0.3-0.1-0.4-0.1c-0.4,0-0.8,0.2-1,0.5l-3,3.5l-4.1-2.4l1.5-4.3
			c0.2-0.5,0-1.1-0.4-1.5c-0.9-0.8-1.7-1.6-2.4-2.4c-0.4-0.4-0.9-0.6-1.5-0.4l-4.3,1.5l-2.4-4.1l3.5-3c0.4-0.4,0.6-0.9,0.4-1.5
			c-0.4-1.1-0.7-2.2-0.9-3.3c-0.1-0.5-0.5-1-1.1-1.1l-4.5-0.9l0-4.7l4.5-0.9c0.5-0.1,1-0.5,1.1-1.1c0.2-1.1,0.5-2.3,0.9-3.3
			c0.2-0.5,0-1.1-0.4-1.5l-3.5-3l2.4-4.1l4.3,1.5c0.5,0.2,1.1,0,1.5-0.4c0.8-0.9,1.6-1.7,2.4-2.4c0.4-0.4,0.6-0.9,0.4-1.5l-1.5-4.3
			l4.1-2.4l3,3.5c0.4,0.4,0.9,0.6,1.5,0.4c1.1-0.4,2.2-0.7,3.3-0.9c0.5-0.1,1-0.5,1.1-1.1l0.9-4.5h4.7l0.9,4.5
			c0.1,0.5,0.5,1,1.1,1.1c1.1,0.2,2.3,0.5,3.3,0.9c0.5,0.2,1.1,0,1.5-0.4l3-3.5l4.1,2.4L71.2,21c-0.2,0.5,0,1.1,0.4,1.5
			c0.9,0.8,1.7,1.6,2.4,2.4c0.4,0.4,0.9,0.6,1.5,0.4l4.3-1.5l2.4,4.1l-3.5,3c-0.4,0.4-0.6,0.9-0.4,1.5c0.4,1.1,0.7,2.2,0.9,3.3
			c0.1,0.5,0.5,1,1.1,1.1l4.5,0.9V42.4z"/>
	</g>
</g>
</svg>
