<?xml version="1.0" encoding="utf-8"?>
<!-- Generator: Adobe Illustrator 21.0.0, SVG Export Plug-In . SVG Version: 6.00 Build 0)  -->
<svg version="1.1" id="Camada_1" xmlns="http://www.w3.org/2000/svg" xmlns:xlink="http://www.w3.org/1999/xlink" x="0px" y="0px"
	 viewBox="0 0 51 38.9" style="enable-background:new 0 0 51 38.9;" xml:space="preserve">
<style type="text/css">
	.st0{fill:#B1DCE1;}
	.st1{fill:#485059;}
</style>
<g>
	<g>
		<ellipse class="st0" cx="19.6" cy="19.5" rx="19.6" ry="19.5"/>
	</g>
</g>
<g>
	<path class="st1" d="M50.2,2.3C49.9,2.2,43.8,0.5,33,0.5c-10.8,0-16.9,1.8-17.2,1.8C15.3,2.4,15,2.9,15,3.4c0,6.3,1.3,27.5,17.5,35
		l0,0c0.1,0.1,0.3,0.1,0.5,0.1c0.2,0,0.3,0,0.5-0.1C49.7,30.9,51,9.7,51,3.4C51,2.9,50.7,2.4,50.2,2.3z M33,36.1
		C18.9,29.2,17.4,10.4,17.3,4.3c1.9-0.4,7.4-1.5,15.7-1.5c8.3,0,13.8,1.1,15.7,1.5C48.6,10.4,47.1,29.2,33,36.1z"/>
	<path class="st1" d="M35.9,32.2c0.3,0,0.6-0.1,0.8-0.3c2.4-2.2,4.4-5,6-8.4c0.3-0.6,0-1.2-0.5-1.5c-0.3-0.1-0.6-0.1-0.9,0
		c-0.3,0.1-0.5,0.3-0.6,0.6c-1.4,3.1-3.3,5.7-5.5,7.7c-0.2,0.2-0.4,0.5-0.4,0.8s0.1,0.6,0.3,0.8C35.3,32.1,35.6,32.2,35.9,32.2z"/>
</g>
</svg>
