<?xml version="1.0" encoding="utf-8"?>
<!-- Generator: Adobe Illustrator 21.0.0, SVG Export Plug-In . SVG Version: 6.00 Build 0)  -->
<svg version="1.1" id="Camada_1" xmlns="http://www.w3.org/2000/svg" xmlns:xlink="http://www.w3.org/1999/xlink" x="0px" y="0px"
	 viewBox="0 0 51 38.9" style="enable-background:new 0 0 51 38.9;" xml:space="preserve">
<style type="text/css">
	.st0{fill:#B1DCE1;}
	.st1{fill:#485059;}
</style>
<g>
	<g>
		<ellipse class="st0" cx="19.6" cy="19.5" rx="19.6" ry="19.5"/>
	</g>
</g>
<g>
	<g>
		<path class="st1" d="M23.9,10.9c0.2,0.1,0.5,0.1,1.2-0.5c0.3-0.3,0.8-0.7,1.2-1.3l0.2-0.3c1.6-2.2,5.4-7.5,10.8-7.2
			C41.8,2,45,5.6,46.5,11.9c0.1,0.2,0.1,0.3,0.1,0.5c0.2,1,0.6,2.3,1.2,2.8c0.1,0.1,0.3,0.2,0.5,0.2c0.2,0,0.5-0.1,0.6-0.3
			c0.2-0.4,0.2-0.9-0.1-1.1c-0.2-0.2-0.4-1.1-0.6-1.9c0,0,0-0.1,0-0.1c0-0.1,0-0.2-0.1-0.3c-0.2-1-0.9-3.7-2.5-6.2
			c-2-3.3-4.8-5-8.2-5.3h0C31.2-0.3,27,5.4,25.3,7.9l-0.2,0.3c-0.5,0.7-1.1,1.1-1.2,1.2c-0.1,0-0.1,0.1-0.2,0.1
			c-0.2,0.2-0.4,0.5-0.3,0.8C23.4,10.6,23.6,10.9,23.9,10.9z M43.8,14.1c0.6-1.6,0.6-3.2,0-4.4c-0.5-1.1-1.5-1.9-2.8-2.3
			c-1.9-0.6-4.2,0.5-6.3,3c0,0-3,3.3-6.2,5.4c0,0-2.3,1.5-4.7,2.1c-0.4,0.1-0.7,0.6-0.6,1c0.1,0.4,0.5,0.7,1,0.6
			c2.6-0.7,5-2.3,5.1-2.3c3.4-2.2,6.5-5.6,6.5-5.7c1.3-1.5,3.2-3,4.6-2.5c0.9,0.3,1.5,0.8,1.8,1.5c0.4,0.8,0.4,2-0.1,3.1
			c-0.8,2.1-3.3,4.7-7.1,7.2c-1.9,1.3-6.6,4.4-10,5.9c-0.4,0.2-0.6,0.7-0.4,1.1c0.1,0.3,0.4,0.5,0.7,0.5c0.1,0,0.2,0,0.3-0.1
			c3.5-1.6,8.3-4.7,10.2-6C38.9,20.2,42.6,17.2,43.8,14.1z M31,7.9c-0.4,0.4-0.7,0.9-1,1.3c-0.5,0.6-1,1.1-1.5,1.6
			c-0.5,0.5-1,0.9-1.6,1.2c-0.7,0.4-1.3,0.8-2,1.2c-0.2,0.1-0.4,0.2-0.7,0.3c-0.4,0.1-0.7,0.6-0.6,1c0.1,0.4,0.6,0.7,1,0.6
			c0.8-0.3,1.5-0.7,2.3-1.1c0.6-0.4,1.2-0.7,1.8-1.2c1.1-0.9,2.1-1.9,2.9-3c0.4-0.5,0.7-0.9,1.1-1.3C33,8.2,33.2,8,33.4,7.8
			c0.1-0.1,0.2-0.2,0.4-0.3c0.1-0.1,0.1-0.1,0.2-0.2c0,0,0.1-0.1,0.2-0.1c0.6-0.4,1.1-0.8,1.8-1.2c0.6-0.3,1.2-0.5,1.9-0.7
			c0.2-0.1,0.3-0.1,0.5-0.1c0.4,0,0.8-0.3,0.8-0.8c0-0.4-0.4-0.9-0.8-0.8C35.4,3.9,32.9,5.7,31,7.9z M24.9,23.8
			c1.7-0.6,10.6-4.1,15.5-11.3c0.3-0.4,0.2-0.9-0.2-1.2c-0.4-0.3-0.8-0.2-1.1,0.2C34.4,18.4,26,21.7,24.3,22.3c0,0-0.1,0-0.1,0
			c-0.4,0.2-0.6,0.6-0.5,1.1c0.1,0.3,0.4,0.5,0.7,0.5C24.7,23.9,24.7,23.9,24.9,23.8L24.9,23.8z M35.2,27.3c0.2-0.9,0.5-1.7,0.9-2.5
			c-1,0.6-2.2,1.4-3.7,2.5c-2,1.4-4.2,2.9-5.2,3.2c-0.4,0.1-0.7,0.6-0.6,1c0.1,0.4,0.4,0.6,0.8,0.6c0.1,0,0.1,0,0.2,0
			c1.2-0.3,3.4-1.8,5.7-3.4C33.9,28.2,34.5,27.8,35.2,27.3z M35.1,30.4c-1.1,0.7-2.5,1.8-4.2,3.1c-0.4,0.3-0.8,0.6-1,0.8
			c-0.4,0.3-0.4,0.8-0.2,1.2c0.2,0.2,0.4,0.4,0.6,0.4c0.2,0,0.3-0.1,0.5-0.2c0.3-0.2,0.6-0.5,1.1-0.8c0.8-0.6,2.3-1.8,3.7-2.7
			C35.2,31.6,35.1,31,35.1,30.4z M32.8,37.5c-0.3,0.3-0.3,0.9,0,1.2c0.2,0.2,0.4,0.2,0.6,0.2c0.2,0,0.4-0.1,0.6-0.3
			c1.1-1.1,2.6-2.5,3.2-2.6c0.3,0,0.6,0.1,1,0.3c-0.6-0.5-1.1-1.1-1.6-1.8C35.2,35,33.2,37.1,32.8,37.5z M48.7,19.8
			c-0.7-0.3-1.4-0.6-1.9-1.1c-0.6-0.5-0.9-1.2-1-2c-0.2-1.1-1.7-0.6-1.5,0.4c0.2,1.4,1,2.4,2,3.2c0.8,0.2,1.6,0.6,2.3,1
			c0.2,0,0.4-0.2,0.5-0.4C49.2,20.6,49.1,20,48.7,19.8z M41.8,19.7c-0.3,0.1-0.5,0.4-0.6,0.7c0.5-0.2,1-0.3,1.5-0.3
			C42.5,19.8,42.2,19.6,41.8,19.7z M43.4,20.8c-4.2,0-7.7,3.6-7.7,8c0,4.4,3.4,8,7.7,8c4.2,0,7.7-3.6,7.7-8
			C51.1,24.4,47.6,20.8,43.4,20.8z M43.4,35.2c-3.3,0-6-2.8-6-6.3c0-3.5,2.7-6.3,6-6.3c3.3,0,6,2.8,6,6.3
			C49.5,32.3,46.7,35.2,43.4,35.2z M42.5,30.3l-2.1-2l-1.1,1.3l3.3,3.2l4.9-6.1l-1.3-1.1L42.5,30.3z"/>
	</g>
</g>
</svg>
