<?xml version="1.0" encoding="utf-8"?>
<!-- Generator: Adobe Illustrator 21.1.0, SVG Export Plug-In . SVG Version: 6.00 Build 0)  -->
<svg version="1.1" id="Camada_1" xmlns="http://www.w3.org/2000/svg" xmlns:xlink="http://www.w3.org/1999/xlink" x="0px" y="0px"
	 viewBox="0 0 113 80" style="enable-background:new 0 0 113 80;" xml:space="preserve">
<style type="text/css">
	.st0{fill:#57656C;}
</style>
<g>
	<g>
		<path class="st0" d="M33.1,24.7c0.4,0.1,0.8,0.1,2.1-0.9c0.6-0.5,1.4-1.2,2.1-2.3l0.3-0.5c2.8-4,9.5-13.5,19.1-13
			c7.9,0.6,13.5,7,16.2,18.5c0.1,0.4,0.1,0.6,0.2,0.8c0.4,1.9,1.1,4.2,2.1,5c0.3,0.2,0.5,0.3,0.8,0.3c0.4,0,0.9-0.2,1.1-0.6
			c0.4-0.6,0.3-1.5-0.3-2c-0.3-0.4-0.8-2-1.1-3.4c0-0.1,0-0.2-0.1-0.2c0-0.1-0.1-0.3-0.1-0.5c-0.4-1.8-1.6-6.6-4.3-11.2
			C67.8,8.7,63,5.5,57,5h0c-11.1-0.6-18.4,9.7-21.5,14.2l-0.3,0.5c-0.8,1.2-1.9,1.9-2.2,2.2c-0.1,0-0.2,0.1-0.3,0.2
			c-0.4,0.4-0.6,1-0.5,1.5C32.2,24.1,32.6,24.5,33.1,24.7z M68.1,30.4c1.1-2.8,1.1-5.7,0.1-8c-0.9-2-2.6-3.5-4.9-4.2
			c-3.3-1.1-7.4,0.9-11.1,5.4c0,0.1-5.3,6-10.9,9.6c0,0-4.1,2.6-8.3,3.9c-0.7,0.2-1.2,1-1,1.8c0.2,0.8,1,1.3,1.7,1
			c4.6-1.3,8.9-4.1,9.1-4.2c6-3.9,11.5-10.1,11.5-10.2c2.3-2.8,5.6-5.4,8.2-4.6c1.5,0.5,2.6,1.4,3.2,2.6c0.7,1.5,0.6,3.5-0.1,5.6
			c-1.4,3.8-5.9,8.4-12.5,12.9c-3.3,2.3-11.7,7.9-17.6,10.6c-0.7,0.3-1,1.2-0.7,2c0.2,0.6,0.7,0.9,1.3,0.9c0.2,0,0.4,0,0.6-0.1
			c6.1-2.8,14.6-8.5,18-10.8C59.6,41.3,66,36,68.1,30.4z M45.6,19.2c-0.6,0.7-1.2,1.5-1.8,2.3c-0.8,1-1.7,1.9-2.6,2.8
			c-0.9,0.9-1.7,1.6-2.8,2.2c-1.2,0.7-2.4,1.5-3.6,2.1c-0.4,0.2-0.8,0.4-1.2,0.5c-0.7,0.2-1.2,1-1,1.8c0.2,0.8,1,1.3,1.7,1
			c1.4-0.5,2.7-1.2,4-2c1.1-0.7,2.2-1.3,3.2-2.1c1.9-1.6,3.6-3.4,5.2-5.5c0.6-0.8,1.3-1.6,2-2.4c0.4-0.4,0.8-0.8,1.2-1.2
			c0.2-0.2,0.4-0.4,0.6-0.6c0.1-0.1,0.2-0.2,0.3-0.3c0,0,0.2-0.2,0.3-0.3c1-0.8,2-1.5,3.1-2.1c1-0.6,2.1-1,3.3-1.2
			c0.4-0.1,0.5-0.1,0.8-0.1c0.8-0.1,1.4-0.6,1.4-1.5c0-0.8-0.6-1.6-1.4-1.5C53.3,12,49,15.3,45.6,19.2z M34.8,47.8
			c3-1.1,18.6-7.3,27.3-20.4c0.4-0.7,0.3-1.6-0.3-2.1c-0.6-0.5-1.5-0.3-1.9,0.3C51.6,38,36.7,44,33.9,45c-0.1,0-0.1,0-0.1,0
			c-0.7,0.3-1.1,1.2-0.8,1.9c0.2,0.6,0.7,1,1.3,1C34.4,48,34.6,47.9,34.8,47.8L34.8,47.8z M53,54.2c0.3-1.6,0.9-3.1,1.6-4.5
			c-1.7,1-3.8,2.5-6.5,4.4c-3.5,2.5-7.4,5.2-9.2,5.7c-0.7,0.2-1.2,1-1,1.8c0.2,0.7,0.7,1.1,1.3,1.1c0.1,0,0.2,0,0.4-0.1
			c2.2-0.6,5.9-3.3,10-6.1C50.6,55.8,51.8,54.9,53,54.2z M52.7,59.7c-1.9,1.3-4.4,3.2-7.4,5.6c-0.7,0.6-1.4,1.1-1.8,1.4
			c-0.6,0.5-0.8,1.4-0.3,2.1c0.3,0.4,0.7,0.6,1.1,0.6c0.3,0,0.6-0.1,0.8-0.3c0.5-0.4,1.1-0.9,1.9-1.4c1.4-1.1,4.1-3.2,6.4-4.9
			C53.1,61.8,52.8,60.8,52.7,59.7z M48.8,72.5c-0.5,0.6-0.5,1.5,0,2.1c0.3,0.3,0.6,0.4,1,0.4c0.4,0,0.7-0.2,1-0.5
			c1.9-2.1,4.5-4.4,5.6-4.6c0.5-0.1,1.1,0.1,1.7,0.5c-1.1-1-2-2.1-2.8-3.3C52.9,68,49.5,71.7,48.8,72.5z M76.8,40.7
			c-1.2-0.5-2.4-1.1-3.4-2c-1.1-1-1.6-2.2-1.8-3.7c-0.3-1.9-3-1.1-2.7,0.8c0.4,2.6,1.7,4.4,3.5,5.7c1.4,0.4,2.8,1.1,4,1.9
			c0.3-0.1,0.6-0.3,0.9-0.7C77.7,42.1,77.5,41,76.8,40.7z M64.7,40.4c-0.5,0.2-1,0.7-1,1.3c0.8-0.3,1.7-0.5,2.6-0.6
			C65.9,40.5,65.3,40.2,64.7,40.4z M67.5,42.4c-7.5,0-13.5,6.5-13.5,14.5c0,8,6.1,14.5,13.5,14.5c7.5,0,13.5-6.5,13.5-14.5
			C81,48.9,74.9,42.4,67.5,42.4z M67.5,68.3c-5.9,0-10.6-5.1-10.6-11.4c0-6.3,4.8-11.4,10.6-11.4c5.9,0,10.6,5.1,10.6,11.4
			C78.1,63.2,73.3,68.3,67.5,68.3z M65.8,59.6L62.2,56l-2,2.3l5.9,5.8L74.8,53l-2.2-2L65.8,59.6z"/>
	</g>
</g>
</svg>
