<?xml version="1.0" encoding="utf-8"?>
<!-- Generator: Adobe Illustrator 21.1.0, SVG Export Plug-In . SVG Version: 6.00 Build 0)  -->
<svg version="1.1" id="Camada_1" xmlns="http://www.w3.org/2000/svg" xmlns:xlink="http://www.w3.org/1999/xlink" x="0px" y="0px"
	 viewBox="0 0 113 80" style="enable-background:new 0 0 113 80;" xml:space="preserve">
<style type="text/css">
	.st0{fill:#57656C;}
</style>
<g>
	<g>
		<path class="st0" d="M86.1,10.6c-0.4-0.1-11-3.1-29.6-3.1c-18.6,0-29.2,3-29.6,3.1c-0.8,0.2-1.4,1-1.4,1.9
			c0,10.8,2.2,47.1,30.2,59.8l0,0c0.3,0.1,0.5,0.2,0.8,0.2c0.3,0,0.5-0.1,0.8-0.2c28-12.7,30.2-49,30.2-59.8
			C87.5,11.6,86.9,10.9,86.1,10.6z M56.5,68.4C32.3,56.7,29.6,24.5,29.4,14c3.3-0.8,12.8-2.6,27.1-2.6c14.2,0,23.8,1.9,27.1,2.6
			C83.4,24.5,80.7,56.7,56.5,68.4z M61.5,61.8c0.5,0,1-0.2,1.3-0.5c4.1-3.8,7.6-8.6,10.3-14.3c0.5-1,0-2.1-0.9-2.6
			c-0.5-0.2-1-0.3-1.5-0.1c-0.5,0.2-0.9,0.5-1.1,1c-2.5,5.3-5.7,9.7-9.4,13.1c-0.4,0.4-0.6,0.8-0.6,1.4c0,0.5,0.2,1,0.5,1.4
			C60.4,61.5,61,61.8,61.5,61.8z"/>
	</g>
</g>
</svg>
