<svg xmlns="http://www.w3.org/2000/svg" viewBox="3138 4776 34.151 50">
  <defs>
    <style>
      .cls-1 {
        fill: #007ea6;
      }
    </style>
  </defs>
  <path id="Path_46" data-name="Path 46" class="cls-1" d="M30.83,25H25V3.33A3.347,3.347,0,0,0,21.67,0H3.33A3.347,3.347,0,0,0,0,3.33V46.66A3.349,3.349,0,0,0,3.33,50H21.66a3.34,3.34,0,0,0,3.33-3.33v-15h5.83A3.335,3.335,0,0,0,30.83,25Zm-7.5,21.67a1.675,1.675,0,0,1-1.67,1.67H3.33a1.675,1.675,0,0,1-1.67-1.67V3.33A1.675,1.675,0,0,1,3.33,1.66H21.66a1.675,1.675,0,0,1,1.67,1.67V25H18.242A6.622,6.622,0,0,0,12.5,21.67a6.67,6.67,0,1,0,5.781,10.01H23.33V46.67ZM15,31.67h1.25a5.4,5.4,0,0,1-3.75,1.67,5,5,0,0,1,0-10,5.359,5.359,0,0,1,3.75,1.67H15a3.33,3.33,0,1,0,0,6.66ZM30.83,30H14.99a1.67,1.67,0,1,1,0-3.34H30.83a1.67,1.67,0,0,1,0,3.34Z" transform="translate(3138 4776)"/>
</svg>
