<svg xmlns="http://www.w3.org/2000/svg" viewBox="2500 3607 34.066 47.865">
  <defs>
    <style>
      .cls-1 {
        fill: #007ea6;
      }
    </style>
  </defs>
  <g id="Group_5" data-name="Group 5" transform="translate(2500 3607)">
    <path id="Path_3" data-name="Path 3" class="cls-1" d="M33.1,34.169a1.277,1.277,0,0,0-1.6.823,14.836,14.836,0,1,1,.075-8.732,1.269,1.269,0,1,0,2.431-.729,17.446,17.446,0,0,0-5.217-8.105V11.77A11.766,11.766,0,0,0,12.826.776a1.273,1.273,0,1,0,.916,2.375A9.225,9.225,0,0,1,26.26,11.77v3.8A17.34,17.34,0,0,0,7.806,16V11.77A9.217,9.217,0,0,1,9.367,6.628,1.273,1.273,0,1,0,7.255,5.207a11.678,11.678,0,0,0-1.991,6.553v6.282A17.368,17.368,0,1,0,33.926,35.759,1.267,1.267,0,0,0,33.1,34.169Z" transform="translate(0)"/>
    <path id="Path_4" data-name="Path 4" class="cls-1" d="M71.061,226.523a11.461,11.461,0,1,1,11.461-11.461A11.475,11.475,0,0,1,71.061,226.523Zm0-20.38a8.919,8.919,0,1,0,8.919,8.919A8.929,8.929,0,0,0,71.061,206.143Z" transform="translate(-54.028 -184.566)"/>
    <path id="Path_5" data-name="Path 5" class="cls-1" d="M135.7,295.379a1.255,1.255,0,0,1,.879.15l3.861,2.234a1.273,1.273,0,0,1-1.271,2.206l-2.72-1.571-2.44,4.581a1.271,1.271,0,1,1-2.244-1.2l3.057-5.74a1.241,1.241,0,0,1,.776-.626A.335.335,0,0,1,135.7,295.379Z" transform="translate(-119.313 -267.745)"/>
  </g>
</svg>
