<svg xmlns="http://www.w3.org/2000/svg" viewBox="2495 3815 43.78 47.692">
  <defs>
    <style>
      .cls-1 {
        fill: #007ea6;
      }
    </style>
  </defs>
  <g id="Group_7" data-name="Group 7" transform="translate(2495 3815)">
    <ellipse id="Ellipse_4" data-name="Ellipse 4" class="cls-1" cx="0.997" cy="0.997" rx="0.997" ry="0.997" transform="translate(20.912 20.623)"/>
    <ellipse id="Ellipse_5" data-name="Ellipse 5" class="cls-1" cx="0.997" cy="0.997" rx="0.997" ry="0.997" transform="translate(20.912 23.977)"/>
    <path id="Path_9" data-name="Path 9" class="cls-1" d="M37.511,10.461a4.659,4.659,0,0,0,.866-2.72V4.7a4.715,4.715,0,0,0-4.7-4.7h-.643a4.715,4.715,0,0,0-4.7,4.7V7.741a4.631,4.631,0,0,0,.866,2.711h-3.12a4.7,4.7,0,0,0,.866-2.711V4.7a4.715,4.715,0,0,0-4.7-4.7h-.643a4.715,4.715,0,0,0-4.7,4.7V7.741a4.631,4.631,0,0,0,.866,2.711h-3.12A4.7,4.7,0,0,0,15.5,7.741V4.7A4.715,4.715,0,0,0,10.8,0h-.643A4.713,4.713,0,0,0,5.431,4.7V7.741a4.7,4.7,0,0,0,.866,2.72A6.575,6.575,0,0,0,0,17v9.706a3.669,3.669,0,0,0,3.67,3.661h.056v14.01a3.323,3.323,0,0,0,3.316,3.316H8.123a3.3,3.3,0,0,0,2.319-.95,3.3,3.3,0,0,0,2.319.95h1.081a3.3,3.3,0,0,0,2.319-.95,3.3,3.3,0,0,0,2.329.95h1.081a3.3,3.3,0,0,0,2.319-.95,3.3,3.3,0,0,0,2.319.95H25.29a3.337,3.337,0,0,0,2.329-.95,3.3,3.3,0,0,0,2.319.95h1.081a3.3,3.3,0,0,0,2.319-.95,3.3,3.3,0,0,0,2.319.95h1.081a3.323,3.323,0,0,0,3.316-3.316V30.367h.056a3.669,3.669,0,0,0,3.67-3.661V17A6.524,6.524,0,0,0,37.511,10.461ZM30.32,4.7a2.713,2.713,0,0,1,2.711-2.711h.643A2.713,2.713,0,0,1,36.384,4.7V7.741a2.713,2.713,0,0,1-2.711,2.711h-.643A2.713,2.713,0,0,1,30.32,7.741Zm-11.448,0a2.713,2.713,0,0,1,2.711-2.711h.643A2.713,2.713,0,0,1,24.936,4.7V7.741a2.713,2.713,0,0,1-2.711,2.711h-.643a2.713,2.713,0,0,1-2.711-2.711Zm5.337,7.741-2.3,3.782-2.3-3.782ZM7.415,4.7a2.713,2.713,0,0,1,2.711-2.711h.643A2.713,2.713,0,0,1,13.479,4.7V7.741a2.713,2.713,0,0,1-2.711,2.711h-.643A2.713,2.713,0,0,1,7.415,7.741ZM4.732,19.366a1,1,0,0,0-1,1h0v8.02H3.679a1.676,1.676,0,0,1-1.686-1.667V17a4.574,4.574,0,0,1,4.583-4.555h6.735A6.533,6.533,0,0,0,11.448,17v9.706a3.809,3.809,0,0,0,.121.931l-1.118.568L5.729,25.8v-5.44h0A1,1,0,0,0,4.732,19.366ZM13.861,45.7H12.78a1.332,1.332,0,0,1-1.332-1.332V33.431a1,1,0,1,0-1.993,0V44.376a1.332,1.332,0,0,1-1.332,1.332H7.051a1.332,1.332,0,0,1-1.332-1.332V28.038l4.276,2.18a.963.963,0,0,0,.447.112.936.936,0,0,0,.447-.112l1.686-.857a3.675,3.675,0,0,0,2.534,1.015h.056v14.01A1.3,1.3,0,0,1,13.861,45.7Zm12.771-1.323A1.332,1.332,0,0,1,25.3,45.708H24.219a1.332,1.332,0,0,1-1.332-1.332V33.431a1,1,0,1,0-1.993,0V44.376a1.332,1.332,0,0,1-1.332,1.332H18.481a1.332,1.332,0,0,1-1.332-1.332V28.047l4.276,2.17a.963.963,0,0,0,.447.112.936.936,0,0,0,.447-.112l4.276-2.18V44.376Zm0-24.014h0V25.8l-4.732,2.4-4.732-2.394V20.362h0a1,1,0,0,0-1.993,0h0v8.02h-.056a1.676,1.676,0,0,1-1.686-1.667V17A4.575,4.575,0,0,1,17.3,12.5l3.754,6.157a.994.994,0,0,0,1.7,0L26.5,12.5A4.568,4.568,0,0,1,30.367,17v9.706a1.676,1.676,0,0,1-1.686,1.667h-.056v-8.02h0a1,1,0,1,0-1.993.009ZM38.089,44.376a1.332,1.332,0,0,1-1.332,1.332H35.676a1.332,1.332,0,0,1-1.332-1.332V33.431a1,1,0,1,0-1.993,0V44.376a1.332,1.332,0,0,1-1.332,1.332H29.938a1.332,1.332,0,0,1-1.332-1.332V30.367h.056A3.65,3.65,0,0,0,31.2,29.351l1.686.857a.963.963,0,0,0,.447.112.936.936,0,0,0,.447-.112l4.276-2.18V44.376Zm3.726-17.67a1.676,1.676,0,0,1-1.686,1.667h-.056v-8.02h0a1,1,0,0,0-1.993,0h0V25.8l-4.732,2.4-1.118-.568a3.869,3.869,0,0,0,.121-.931V17a6.493,6.493,0,0,0-1.863-4.555h6.735A4.574,4.574,0,0,1,41.805,17l.009,9.706Z" transform="translate(0)"/>
  </g>
</svg>
