<svg xmlns="http://www.w3.org/2000/svg" viewBox="4805 4890.66 43.344 43.34">
  <defs>
    <style>
      .cls-1 {
        fill: #007ea6;
      }
    </style>
  </defs>
  <g id="Group_38" data-name="Group 38" transform="translate(4101 2872.66)">
    <path id="Path_112" data-name="Path 112" class="cls-1" d="M96.652,236.922a1.809,1.809,0,0,0-2.565,0,1.836,1.836,0,0,0-.474,1.752l-1.2,1.2h0a3.649,3.649,0,0,1-4.419.559l6.484-6.484.288.288a.925.925,0,0,0,.643.271.765.765,0,0,0,.237-.034.914.914,0,0,0,.643-.643l.686-2.548a.914.914,0,0,0-1.117-1.117l-2.548.686a.91.91,0,0,0-.406,1.524l.288.288-6.484,6.484a3.653,3.653,0,0,1,.22-4.021,1.789,1.789,0,0,0,1.7-.482,1.814,1.814,0,1,0-3.022-.779,5.481,5.481,0,0,0-.2,6.6l-1.617,1.591a2.723,2.723,0,1,0,1.287,1.3l1.6-1.6a5.478,5.478,0,0,0,7.034-.593h0l1.2-1.2a1.813,1.813,0,0,0,1.744-3.039Zm-13.4,8.228a.882.882,0,0,1-.635.262.9.9,0,0,1-.635-.262.882.882,0,0,1-.262-.635.9.9,0,0,1,.262-.635.882.882,0,0,1,.635-.262.9.9,0,0,1,.635,1.532Z" transform="translate(630.867 1807.345)"/>
    <path id="Path_113" data-name="Path 113" class="cls-1" d="M334.379,156.436l-.017.017a.909.909,0,0,0,.008,1.287.9.9,0,0,0,.643.262.923.923,0,0,0,.652-.271l.017-.017a.913.913,0,0,0-1.3-1.278Z" transform="translate(398.185 1875.056)"/>
    <path id="Path_114" data-name="Path 114" class="cls-1" d="M323.53,79.2a.91.91,0,0,0-1.287-1.287l-2.226,2.226a.909.909,0,0,0,0,1.287.9.9,0,0,0,1.287,0Z" transform="translate(411.32 1946.923)"/>
    <path id="Path_115" data-name="Path 115" class="cls-1" d="M387.46,148.5a.9.9,0,0,0,.643-.271L390.33,146a.91.91,0,0,0-1.287-1.287l-2.226,2.226a.909.909,0,0,0,0,1.287A.919.919,0,0,0,387.46,148.5Z" transform="translate(350.175 1885.777)"/>
    <path id="Path_116" data-name="Path 116" class="cls-1" d="M33.83,25.725a3.656,3.656,0,0,0,.584-1.769,3.749,3.749,0,0,0-.533-1.938l9.142-9.142a.925.925,0,0,0,.271-.643.876.876,0,0,0-.271-.643L31.714.271A.925.925,0,0,0,31.071,0a.876.876,0,0,0-.643.271L21.286,9.413a3.784,3.784,0,0,0-4.6.567L3.391,23.261A11.768,11.768,0,0,0,20.033,39.9L25.239,34.7ZM31.071,2.2l4.368,4.368-5.147,5.147a.909.909,0,0,0,0,1.287.919.919,0,0,0,.643.271A.9.9,0,0,0,31.579,13l5.147-5.147,4.368,4.368-8.414,8.414L22.648,10.615ZM18.746,38.608A9.945,9.945,0,0,1,4.678,24.548L17.959,11.267a1.941,1.941,0,0,1,2.743,0L32.019,22.584a1.941,1.941,0,0,1,0,2.743Z" transform="translate(704.05 2018)"/>
  </g>
</svg>
