<svg xmlns="http://www.w3.org/2000/svg" viewBox="2498.956 4775.724 34.744 50">
  <defs>
    <style>
      .cls-1 {
        fill: #007ea6;
      }
    </style>
  </defs>
  <g id="Group_19" data-name="Group 19" transform="translate(1656.956 3037.723)">
    <path id="Path_23" data-name="Path 23" class="cls-1" d="M8.113,132.679a15.662,15.662,0,0,1-6.349-12.566V104.872c0-.441.015-.9.059-1.337a.885.885,0,0,0-1.764-.147c-.044.485-.059,1-.059,1.484v15.241A17.325,17.325,0,0,0,7.069,134.1a.881.881,0,0,0,.529.176.857.857,0,0,0,.705-.353.889.889,0,0,0-.191-1.249Zm0,0" transform="translate(842 1650.5)"/>
    <path id="Path_24" data-name="Path 24" class="cls-1" d="M66.581,317.765a15.281,15.281,0,0,1-1.6-.661.881.881,0,0,0-.764,1.587,15.616,15.616,0,0,0,1.778.735,1.018,1.018,0,0,0,.294.044.9.9,0,0,0,.838-.588.874.874,0,0,0-.544-1.117Zm0,0" transform="translate(787.647 1467.575)"/>
    <path id="Path_25" data-name="Path 25" class="cls-1" d="M118.36,194.6a.884.884,0,0,0-.882.882v3.13a15.628,15.628,0,0,1-15.608,15.608,15.151,15.151,0,0,1-1.822-.1.888.888,0,0,0-.206,1.764,18.553,18.553,0,0,0,2.028.118,17.387,17.387,0,0,0,17.372-17.372V195.5a.888.888,0,0,0-.882-.9Zm0,0" transform="translate(757.502 1572.001)"/>
    <path id="Path_26" data-name="Path 26" class="cls-1" d="M21.991,0A17.338,17.338,0,0,0,5.456,12.037a.888.888,0,1,0,1.69.544A15.6,15.6,0,0,1,37.6,17.372v8.583a.882.882,0,1,0,1.764,0V17.372A17.387,17.387,0,0,0,21.991,0Zm0,0" transform="translate(837.382 1738)"/>
    <path id="Path_27" data-name="Path 27" class="cls-1" d="M34.246,254.466a.871.871,0,0,0-.4,1.176,13.892,13.892,0,0,0,4.968,5.541,13.735,13.735,0,0,0,13.007.911.876.876,0,0,0,.441-1.161.889.889,0,0,0-1.161-.441,11.939,11.939,0,0,1-15.667-5.614.889.889,0,0,0-1.19-.412Zm0,0" transform="translate(813.207 1521.012)"/>
    <path id="Path_28" data-name="Path 28" class="cls-1" d="M170.763,94.866a.915.915,0,0,0,.588-.22,13.722,13.722,0,0,0,4.659-10.3V69.116a13.588,13.588,0,0,0-2.646-8.1.889.889,0,0,0-1.235-.191.876.876,0,0,0-.191,1.235,11.819,11.819,0,0,1,2.307,7.055V84.357a11.984,11.984,0,0,1-4.071,8.98.884.884,0,0,0-.073,1.249.935.935,0,0,0,.661.279Zm0,0" transform="translate(697.09 1686.256)"/>
    <path id="Path_29" data-name="Path 29" class="cls-1" d="M150.627,35.367a.88.88,0,0,0,.5.162.855.855,0,0,0,.72-.382.873.873,0,0,0-.22-1.22,14.3,14.3,0,0,0-2.116-1.205.88.88,0,0,0-1.176.441.872.872,0,0,0,.441,1.161,12,12,0,0,1,1.852,1.044Zm0,0" transform="translate(715.535 1710.158)"/>
    <path id="Path_30" data-name="Path 30" class="cls-1" d="M40.82,24.991a13.287,13.287,0,0,0-2.293-.191A13.743,13.743,0,0,0,24.8,38.527V53.342a.882.882,0,0,0,1.764,0V38.527A11.974,11.974,0,0,1,38.527,26.564a12.942,12.942,0,0,1,2,.162.863.863,0,0,0,1.014-.72.878.878,0,0,0-.72-1.014Zm0,0" transform="translate(820.845 1716.845)"/>
    <path id="Path_31" data-name="Path 31" class="cls-1" d="M60.412,54.053a.878.878,0,0,0,1.455.985,8.313,8.313,0,0,1,15.212,4.644v9.877a.882.882,0,0,0,1.764,0V59.682a10.071,10.071,0,0,0-18.43-5.629Zm0,0" transform="translate(790.597 1695.69)"/>
    <path id="Path_32" data-name="Path 32" class="cls-1" d="M50.482,116.08a.884.884,0,0,0,.882-.882v-2.116a.882.882,0,0,0-1.764,0V115.2a.884.884,0,0,0,.882.882Zm0,0" transform="translate(799.69 1642.29)"/>
    <path id="Path_33" data-name="Path 33" class="cls-1" d="M49.515,160.979a10.1,10.1,0,0,0,5.173,8.8.886.886,0,0,0,.426.118.866.866,0,0,0,.764-.456.888.888,0,0,0-.338-1.205,8.35,8.35,0,0,1-4.277-7.26v-9.6a.882.882,0,1,0-1.764,0v9.6Zm0,0" transform="translate(799.775 1609.619)"/>
    <path id="Path_34" data-name="Path 34" class="cls-1" d="M110.389,207.469v-1.587a.882.882,0,0,0-1.764,0v1.6a8.33,8.33,0,0,1-8.319,8.319,8.144,8.144,0,0,1-1.984-.235.886.886,0,1,0-.426,1.72,10.077,10.077,0,0,0,12.493-9.818Zm0,0" transform="translate(759.066 1563.129)"/>
    <path id="Path_35" data-name="Path 35" class="cls-1" d="M87.36,80.92a6.515,6.515,0,0,0-6.305-6.526A6.425,6.425,0,0,0,74.5,80.817V96.058a.882.882,0,0,0,1.764,0V80.832a4.682,4.682,0,0,1,1.4-3.336,4.634,4.634,0,0,1,3.366-1.337,4.746,4.746,0,0,1,4.586,4.762V89.3a.882.882,0,0,0,1.764,0V80.92Zm0,0" transform="translate(778.449 1674.54)"/>
    <path id="Path_36" data-name="Path 36" class="cls-1" d="M99.2,179.836a4.615,4.615,0,0,0,9.23,0v-4.262a.882.882,0,0,0-1.764,0v4.262a2.851,2.851,0,0,1-5.7,0v-7.554a.882.882,0,1,0-1.764,0v7.554Zm0,0" transform="translate(757.38 1591.791)"/>
    <path id="Path_37" data-name="Path 37" class="cls-1" d="M103.988,118.85a.884.884,0,0,0,.882-.882V102.11a2.813,2.813,0,0,0-2.645-2.837,2.73,2.73,0,0,0-2.058.764,2.849,2.849,0,0,0-.867,2.028V107a.882.882,0,1,0,1.764,0v-4.938a1.059,1.059,0,0,1,.323-.75,1.029,1.029,0,0,1,.764-.279,1.066,1.066,0,0,1,.97,1.088v15.858a.859.859,0,0,0,.867.867Zm0,0" transform="translate(757.294 1653.321)"/>
  </g>
</svg>
