<svg xmlns="http://www.w3.org/2000/svg" viewBox="5123 4776 50.083 53.7">
  <defs>
    <style>
      .cls-1 {
        fill: #007ea6;
      }
    </style>
  </defs>
  <g id="Group_39" data-name="Group 39" transform="translate(4354 2707)">
    <path id="Path_117" data-name="Path 117" class="cls-1" d="M182.128,122.959h-.052a4.185,4.185,0,0,0-1.625.328,4.132,4.132,0,0,0-4.076-3.473h-.052a4.041,4.041,0,0,0-1.9.472,4.135,4.135,0,0,0-3.788-2.5h-.052a3.92,3.92,0,0,0-1.573.315v-3.08a4.123,4.123,0,0,0-4.116-4.116h-.052a4.123,4.123,0,0,0-4.116,4.116v10.892c-1.809.3-4.024,1.678-4.024,3.644v3.172c0,2.425,2.136,5.269,3.932,7.222a6.8,6.8,0,0,1,1.8,4.588c0,.039.393,4.365.393,4.365a1.272,1.272,0,0,0,1.271,1.167h17.55a1.29,1.29,0,0,0,1.258-1.049l.38-2.163a1.272,1.272,0,0,0,.013-.223,15.113,15.113,0,0,1,1.35-6.252l.026-.066a17.544,17.544,0,0,0,1.573-7.3v-5.924a4.125,4.125,0,0,0-4.116-4.129ZM183.7,133a15.113,15.113,0,0,1-1.35,6.252l-.026.066a17.677,17.677,0,0,0-1.573,7.183l-.184,1H165.22l-.275-3.041a9.316,9.316,0,0,0-2.464-6.252c-2.005-2.189-3.264-4.3-3.264-5.505v-3.172c0-.249.708-.786,1.481-1.035v3.146a1.271,1.271,0,1,0,2.543,0V115a1.563,1.563,0,0,1,1.56-1.56h.052a1.563,1.563,0,0,1,1.56,1.56V130.39a1.271,1.271,0,0,0,2.543,0V121.9a1.577,1.577,0,0,1,1.573-1.573h.052a1.577,1.577,0,0,1,1.573,1.573v9.123a1.271,1.271,0,1,0,2.543,0v-7.091a1.577,1.577,0,0,1,1.573-1.573h.052a1.577,1.577,0,0,1,1.573,1.573v7.733a1.271,1.271,0,0,0,2.543,0v-4.588a1.577,1.577,0,0,1,1.573-1.573h.052a1.577,1.577,0,0,1,1.573,1.573L183.7,133Zm0,0" transform="translate(632.839 1972.636)"/>
    <path id="Path_118" data-name="Path 118" class="cls-1" d="M179.456,9.013A4.456,4.456,0,1,0,175,4.556a4.461,4.461,0,0,0,4.456,4.456Zm0-6.383a1.914,1.914,0,1,1-1.914,1.914,1.916,1.916,0,0,1,1.914-1.914Zm0,0" transform="translate(616.938 2068.913)"/>
    <path id="Path_119" data-name="Path 119" class="cls-1" d="M91.956,0a4.456,4.456,0,1,0,4.456,4.456A4.461,4.461,0,0,0,91.956,0Zm0,6.37A1.914,1.914,0,1,1,93.87,4.456,1.916,1.916,0,0,1,91.956,6.37Zm0,0" transform="translate(692.969 2069)"/>
    <path id="Path_120" data-name="Path 120" class="cls-1" d="M4.456,0A4.456,4.456,0,1,0,8.913,4.456,4.47,4.47,0,0,0,4.456,0Zm0,6.37A1.914,1.914,0,1,1,6.37,4.456,1.916,1.916,0,0,1,4.456,6.37Zm0,0" transform="translate(769 2069)"/>
    <path id="Path_121" data-name="Path 121" class="cls-1" d="M91.956,87.5a4.456,4.456,0,1,0,4.456,4.456A4.461,4.461,0,0,0,91.956,87.5Zm0,6.37a1.914,1.914,0,1,1,1.914-1.914,1.916,1.916,0,0,1-1.914,1.914Zm0,0" transform="translate(692.969 1992.969)"/>
    <path id="Path_122" data-name="Path 122" class="cls-1" d="M4.456,87.5a4.456,4.456,0,1,0,4.456,4.456A4.461,4.461,0,0,0,4.456,87.5Zm0,6.37A1.914,1.914,0,1,1,6.37,91.956,1.916,1.916,0,0,1,4.456,93.87Zm0,0" transform="translate(769 1992.969)"/>
    <path id="Path_123" data-name="Path 123" class="cls-1" d="M91.956,175a4.456,4.456,0,1,0,4.456,4.456A4.461,4.461,0,0,0,91.956,175Zm0,6.37a1.914,1.914,0,1,1,1.914-1.914,1.916,1.916,0,0,1-1.914,1.914Zm0,0" transform="translate(692.969 1916.938)"/>
    <path id="Path_124" data-name="Path 124" class="cls-1" d="M4.456,175a4.456,4.456,0,1,0,4.456,4.456A4.461,4.461,0,0,0,4.456,175Zm0,6.37a1.914,1.914,0,1,1,1.914-1.914,1.916,1.916,0,0,1-1.914,1.914Zm0,0" transform="translate(769 1916.938)"/>
  </g>
</svg>
